<svg width="21" height="22" viewBox="0 0 21 22" fill="none" xmlns="http://www.w3.org/2000/svg">
<circle cx="10.5" cy="11.8318" r="9.75" stroke="white" stroke-width="0.5"/>
<path d="M10.7578 7.22241C11.7005 7.22241 12.4661 7.45158 13.0547 7.90991C13.6484 8.36825 14.0052 9.15731 14.125 10.2771H12.7578C12.6745 9.76147 12.4844 9.33439 12.1875 8.99585C11.8906 8.6521 11.4141 8.48022 10.7578 8.48022C9.86198 8.48022 9.22135 8.91772 8.83594 9.79272C8.58594 10.3604 8.46094 11.061 8.46094 11.8943C8.46094 12.7328 8.63802 13.4386 8.99219 14.0115C9.34635 14.5844 9.90365 14.8708 10.6641 14.8708C11.2474 14.8708 11.7083 14.6938 12.0469 14.3396C12.3906 13.9802 12.6276 13.4906 12.7578 12.8708H14.125C13.9688 13.9802 13.5781 14.7927 12.9531 15.3083C12.3281 15.8188 11.5286 16.074 10.5547 16.074C9.46094 16.074 8.58854 15.6755 7.9375 14.8787C7.28646 14.0766 6.96094 13.0766 6.96094 11.8787C6.96094 10.4099 7.31771 9.26668 8.03125 8.44897C8.74479 7.63127 9.65365 7.22241 10.7578 7.22241Z" fill="white"/>
</svg>
