<svg width="30" height="31" viewBox="0 0 30 31" fill="none" xmlns="http://www.w3.org/2000/svg">
<g id="copy-alt">
<path id="copy-alt_2" d="M12.0251 7.6958C8.80015 7.6958 6.875 9.6217 6.875 12.8482V21.6711C6.875 21.89 6.68112 22.0738 6.46362 22.0525C4.66112 21.8724 3.75 20.782 3.75 18.801V7.84587C3.75 5.66985 4.85015 4.56934 7.02515 4.56934H17.9749C19.9549 4.56934 21.045 5.48104 21.225 7.28439C21.2475 7.50199 21.0638 7.6958 20.845 7.6958H12.0251ZM22.9688 9.57168H21.25H12.0312C9.84375 9.57168 8.75 10.6659 8.75 12.8545V22.0776V23.7971C8.75 25.9856 9.84375 27.0799 12.0312 27.0799H22.9688C25.1562 27.0799 26.25 25.9856 26.25 23.7971V12.8545C26.25 10.6659 25.1562 9.57168 22.9688 9.57168Z" fill="white"/>
</g>
</svg>
