<svg width="40" height="40" viewBox="0 0 40 40" fill="none" xmlns="http://www.w3.org/2000/svg">
<g id="envelopes">
<path id="envelopes_2" d="M34.9835 11.1167V23.8834C34.9835 25.7267 34.407 27.005 33.2542 27.7C33.0209 27.84 32.4847 27.8001 32.4847 27.2417V16.1151C32.4847 11.7651 29.886 9.16504 25.5381 9.16504H9.44903C8.81933 9.16504 8.82898 8.61006 8.97725 8.37006C9.67525 7.23339 10.948 6.66504 12.7771 6.66504H30.5357C33.501 6.66671 34.9835 8.15005 34.9835 11.1167ZM29.9859 16.1117V28.89C29.9859 31.8534 28.5049 33.3351 25.543 33.3351H7.77298C4.81104 33.3351 3.33008 31.8534 3.33008 28.89V16.1117C3.33008 13.1484 4.81104 11.6667 7.77298 11.6667H25.543C28.5049 11.6667 29.9859 13.1484 29.9859 16.1117ZM26.2209 17.1534C25.8161 16.5967 25.0363 16.4701 24.4749 16.8767L16.8369 22.4334C16.7303 22.5117 16.5873 22.5117 16.479 22.4334L8.84059 16.8767C8.27919 16.4701 7.4998 16.5967 7.09499 17.1534C6.68852 17.7117 6.81186 18.4934 7.36993 18.9L15.0079 24.4567C15.501 24.8167 16.0808 24.995 16.6572 24.995C17.2335 24.995 17.8133 24.815 18.3064 24.4567L25.9444 18.9C26.5041 18.4934 26.6274 17.7117 26.2209 17.1534Z" fill="white"/>
</g>
</svg>
