<svg width="25" height="25" viewBox="0 0 25 25" fill="none" xmlns="http://www.w3.org/2000/svg">
<g id="Frame" clip-path="url(#clip0_437_1940)">
<g id="Group">
<path id="Vector" d="M25 12.5C25 5.59259 19.4074 0 12.5 0C5.59259 0 0 5.59259 0 12.5C0 18.7407 4.57407 23.9074 10.5556 24.8518V16.1111H7.37037V12.5H10.5556V9.74074C10.5556 6.61111 12.4074 4.88889 15.2593 4.88889C16.6296 4.88889 18.0556 5.12963 18.0556 5.12963V8.2037H16.4815C14.9259 8.2037 14.4444 9.16667 14.4444 10.1481V12.5H17.9074L17.3519 16.1111H14.4444V24.8518C20.4259 23.9074 25 18.7407 25 12.5Z" fill="white"/>
<path id="Vector_2" d="M17.3711 16.1109L17.9267 12.4998H14.4452V10.1479C14.4452 9.16645 14.9267 8.20349 16.4822 8.20349H18.0563V5.12941C18.0563 5.12941 16.6304 4.88867 15.26 4.88867C12.4081 4.88867 10.5563 6.61089 10.5563 9.74052V12.4998H7.37109V16.1109H10.5563V24.8516C11.1859 24.9442 11.8526 24.9998 12.5007 24.9998C13.1674 24.9998 13.8155 24.9442 14.4452 24.8516V16.1109H17.3711Z" fill="#1A2027" fill-opacity="0.83"/>
</g>
</g>
<defs>
<clipPath id="clip0_437_1940">
<rect width="25" height="25" fill="white"/>
</clipPath>
</defs>
</svg>
