<svg width="40" height="40" viewBox="0 0 40 40" fill="none" xmlns="http://www.w3.org/2000/svg">
<g id="home">
<path id="home_2" fill-rule="evenodd" clip-rule="evenodd" d="M29.9863 35H24.6556C24.379 35 24.1557 34.7766 24.1557 34.5V27.5C24.1557 25.1984 22.2916 23.3334 19.991 23.3334C17.6904 23.3334 15.8263 25.1984 15.8263 27.5V34.5C15.8263 34.7766 15.603 35 15.3264 35H9.9957C6.66393 35 4.99805 33.3334 4.99805 30V19.4184C4.99805 16.0884 5.86939 15.5768 7.38035 14.3101L17.3157 5.97497C18.8633 4.67664 21.1206 4.67664 22.6682 5.97497L32.6035 14.3101C34.1128 15.5768 34.9856 16.0884 34.9856 19.4184V30C34.9839 33.3334 33.3181 35 29.9863 35Z" fill="white"/>
</g>
</svg>
