<svg width="25" height="26" viewBox="0 0 25 26" fill="none" xmlns="http://www.w3.org/2000/svg">
<g id="Group 43">
<g id="Group">
<path id="Vector" d="M12.5 3.07119C15.8235 3.07119 16.2353 3.07119 17.5588 3.13004C18.7647 3.18889 19.4412 3.39487 19.8824 3.57143C20.4706 3.80683 20.8824 4.07166 21.3235 4.51304C21.7647 4.95443 22.0294 5.36638 22.2647 5.9549C22.4412 6.39628 22.6471 7.04364 22.7059 8.27952C22.7647 9.60367 22.7647 9.9862 22.7647 13.3407C22.7647 16.6952 22.7647 17.0778 22.7059 18.4019C22.6471 19.6084 22.4412 20.2852 22.2647 20.7265C22.0294 21.3151 21.7647 21.727 21.3235 22.1684C20.8824 22.6098 20.4706 22.8746 19.8824 23.11C19.4412 23.2866 18.7941 23.4925 17.5588 23.5514C16.2353 23.6102 15.8529 23.6102 12.5 23.6102C9.17647 23.6102 8.76471 23.6102 7.44118 23.5514C6.23529 23.4925 5.55882 23.2866 5.11765 23.11C4.52941 22.8746 4.11765 22.6098 3.67647 22.1684C3.23529 21.727 2.97059 21.3151 2.73529 20.7265C2.55882 20.2852 2.35294 19.6378 2.29412 18.4019C2.23529 17.0778 2.23529 16.6952 2.23529 13.3407C2.23529 9.9862 2.23529 9.60367 2.29412 8.27952C2.35294 7.07307 2.55882 6.39628 2.73529 5.9549C2.97059 5.36638 3.23529 4.95443 3.67647 4.51304C4.11765 4.07166 4.52941 3.80683 5.11765 3.57143C5.55882 3.39487 6.20588 3.18889 7.44118 3.13004C8.76471 3.07119 9.17647 3.07119 12.5 3.07119ZM12.5 0.80542C9.11765 0.80542 8.67647 0.80542 7.35294 0.893696C6.02941 0.952548 5.11765 1.15853 4.32353 1.48221C3.5 1.80589 2.79412 2.21785 2.11765 2.92406C1.41176 3.63028 1 4.30706 0.67647 5.13098C0.352941 5.92547 0.147059 6.83766 0.0882351 8.16182C-2.279e-07 9.48597 0 9.92735 0 13.3113C0 16.6952 -2.279e-07 17.1366 0.0882351 18.4608C0.147059 19.7849 0.352941 20.6971 0.67647 21.4916C1 22.3155 1.41176 23.0217 2.11765 23.6985C2.82353 24.4047 3.5 24.8167 4.32353 25.1404C5.11765 25.4641 6.02941 25.67 7.35294 25.7289C8.67647 25.7877 9.11765 25.8172 12.5 25.8172C15.8824 25.8172 16.3235 25.8172 17.6471 25.7289C18.9706 25.67 19.8824 25.4641 20.6765 25.1404C21.5 24.8167 22.2059 24.4047 22.8824 23.6985C23.5882 22.9923 24 22.3155 24.3235 21.4916C24.6471 20.6971 24.8529 19.7849 24.9118 18.4608C24.9706 17.1366 25 16.6952 25 13.3113C25 9.92735 25 9.48597 24.9118 8.16182C24.8529 6.83766 24.6471 5.92547 24.3235 5.13098C24 4.30706 23.5882 3.60085 22.8824 2.92406C22.1765 2.21785 21.5 1.80589 20.6765 1.48221C19.8824 1.15853 18.9706 0.952548 17.6471 0.893696C16.3235 0.80542 15.8824 0.80542 12.5 0.80542Z" fill="white"/>
<path id="Vector_2" d="M12.4997 6.89648C8.94083 6.89648 6.08789 9.78019 6.08789 13.3113C6.08789 16.8423 8.97024 19.726 12.4997 19.726C16.0585 19.726 18.9114 16.8423 18.9114 13.3113C18.9114 9.78019 16.0585 6.89648 12.4997 6.89648ZM12.4997 17.4897C10.2055 17.4897 8.32318 15.6359 8.32318 13.3113C8.32318 10.9866 10.1761 9.13283 12.4997 9.13283C14.8232 9.13283 16.6761 10.9866 16.6761 13.3113C16.6761 15.6359 14.7938 17.4897 12.4997 17.4897Z" fill="white"/>
<path id="Vector_3" d="M19.1758 8.13227C20.0042 8.13227 20.6758 7.46038 20.6758 6.63156C20.6758 5.80275 20.0042 5.13086 19.1758 5.13086C18.3474 5.13086 17.6758 5.80275 17.6758 6.63156C17.6758 7.46038 18.3474 8.13227 19.1758 8.13227Z" fill="white"/>
</g>
</g>
</svg>
