<svg width="25" height="25" viewBox="0 0 25 25" fill="none" xmlns="http://www.w3.org/2000/svg">
<g id="Frame" clip-path="url(#clip0_437_1932)">
<g id="Group">
<path id="Vector" d="M12.5 25C19.4036 25 25 19.4036 25 12.5C25 5.59644 19.4036 0 12.5 0C5.59644 0 0 5.59644 0 12.5C0 19.4036 5.59644 25 12.5 25Z" fill="white"/>
<g id="Group_2">
<g id="Group_3">
<path id="Vector_2" d="M13.464 10.7965C13.6677 10.5743 13.8343 10.3336 14.0566 10.1299C14.7047 9.51875 15.464 9.20393 16.3714 9.22245C16.8714 9.22245 17.3529 9.25949 17.8158 9.40764C18.9084 9.72245 19.538 10.4632 19.8343 11.5373C20.0566 12.3336 20.0936 13.1484 20.1121 13.9632C20.1121 15.6854 20.1121 17.4076 20.1121 19.1484C20.1121 19.315 20.0751 19.3521 19.9084 19.3521C19.0195 19.3521 18.1306 19.3521 17.2418 19.3521C17.0936 19.3521 17.0566 19.2965 17.0566 19.1484C17.0566 17.5002 17.0566 15.8706 17.0566 14.2225C17.0566 13.815 17.0381 13.4076 16.9084 13.0002C16.7047 12.2595 16.1677 11.8891 15.3899 11.9262C14.3343 11.9817 13.7788 12.5002 13.6492 13.5743C13.6121 13.8336 13.5936 14.0928 13.5936 14.3521C13.5936 15.9447 13.5936 17.5558 13.5936 19.1484C13.5936 19.315 13.5566 19.3521 13.3899 19.3521C12.501 19.3521 11.5936 19.3521 10.7047 19.3521C10.5566 19.3521 10.5195 19.315 10.5195 19.1669C10.5195 16.0002 10.5195 12.8336 10.5195 9.6669C10.5195 9.51875 10.5751 9.48171 10.7232 9.48171C11.5751 9.48171 12.4269 9.48171 13.2788 9.48171C13.4269 9.48171 13.4825 9.53727 13.464 9.68542C13.464 10.0373 13.464 10.4076 13.464 10.7965Z" fill="#131313"/>
<path id="Vector_3" d="M8.59361 14.4073C8.59361 15.9814 8.59361 17.537 8.59361 19.111C8.59361 19.2777 8.55657 19.3333 8.37138 19.3333C7.48249 19.3147 6.59361 19.3333 5.70472 19.3333C5.55657 19.3333 5.51953 19.2962 5.51953 19.1481C5.51953 15.9814 5.51953 12.8147 5.51953 9.64808C5.51953 9.51845 5.55657 9.46289 5.6862 9.46289C6.59361 9.46289 7.48249 9.46289 8.3899 9.46289C8.55657 9.46289 8.59361 9.53696 8.59361 9.68511C8.59361 11.2592 8.59361 12.8333 8.59361 14.4073Z" fill="#131313"/>
<path id="Vector_4" d="M8.8329 6.31492C8.8329 7.2964 8.0366 8.0927 7.05512 8.0927C6.09216 8.0927 5.27734 7.2964 5.27734 6.33344C5.27734 5.35196 6.07364 4.55566 7.05512 4.55566C8.0366 4.55566 8.8329 5.35196 8.8329 6.31492Z" fill="#131313"/>
</g>
</g>
</g>
</g>
<defs>
<clipPath id="clip0_437_1932">
<rect width="25" height="25" fill="white"/>
</clipPath>
</defs>
</svg>
