<svg width="40" height="40" viewBox="0 0 40 40" fill="none" xmlns="http://www.w3.org/2000/svg">
<g id="phone">
<path id="phone_2" d="M29.3609 23.6233L33.7639 26.25C34.6735 26.7933 35.1431 27.85 34.9348 28.89C34.0836 33.155 29.8024 35.8883 25.6094 34.7367C15.7157 32.02 7.98748 24.3117 5.26209 14.3917C4.1093 10.195 6.83819 5.9083 11.1029 5.05496L11.1309 5.04998C12.1721 4.84164 13.2335 5.31331 13.7749 6.22831L16.3787 10.6267C17.3049 12.1917 16.8449 14.2066 15.3306 15.2133L12.5638 17.055C14.5162 21.7333 18.2476 25.4817 22.9105 27.4317L24.7679 24.6567C25.7824 23.145 27.7983 22.6917 29.3609 23.6233Z" fill="white"/>
</g>
</svg>
