<svg width="100" height="99" viewBox="0 0 100 99" fill="none" xmlns="http://www.w3.org/2000/svg">
<g id="re edu logo-02 1">
<g id="Group">
<path id="Vector" d="M25.846 33.693C22.098 33.693 19.581 34.914 18.295 37.354C17.576 38.727 17.216 40.841 17.216 43.695V60.725H7.83496V25.096H16.726V31.306C18.164 28.931 19.417 27.307 20.485 26.436C22.228 24.976 24.494 24.246 27.284 24.246C27.458 24.246 27.605 24.252 27.725 24.262C27.845 24.273 28.112 24.29 28.526 24.311V33.856C27.938 33.791 27.415 33.747 26.957 33.725C26.499 33.704 26.129 33.692 25.846 33.692V33.693Z" fill="white"/>
<path id="Vector_2" d="M64.2248 56.619C63.6758 57.241 62.8318 58.096 61.6628 58.924C57.6338 61.781 53.2748 61.816 51.4108 61.816C46.8778 61.816 42.8798 60.356 39.4148 57.436C35.9498 54.516 34.2178 49.766 34.2178 43.185C34.2178 37.018 35.7808 32.29 38.9088 28.999C42.0358 25.709 46.0938 24.063 51.0848 24.063C54.0478 24.063 56.7178 24.619 59.0928 25.73C61.4678 26.841 63.4288 28.596 64.9768 30.993C66.3708 33.107 67.2758 35.558 67.6898 38.348C67.9298 39.982 68.0278 42.336 67.9838 45.408H43.5998C43.7308 48.982 44.8528 51.488 46.9668 52.926C48.5698 54.017 50.3808 54.164 51.6088 54.266C52.6758 54.355 54.5908 54.493 56.7658 53.56C58.5318 52.803 59.6718 51.681 60.2708 50.995C61.5888 52.87 62.9078 54.744 64.2258 56.619H64.2248ZM59.7578 39.367C59.5898 36.905 58.7688 35.036 57.2948 33.761C55.8208 32.486 53.9928 31.849 51.8118 31.849C49.4388 31.849 47.5988 32.525 46.2928 33.876C44.9858 35.227 44.1648 37.058 43.8298 39.367H59.7588H59.7578Z" fill="white"/>
</g>
<path id="Vector_3" d="M86.1091 57.6999H76.2051V47.9589H86.1091V57.6999ZM79.4741 47.4959C77.9051 48.1499 76.8151 48.4769 76.2051 48.4769V44.8809C78.4061 44.2489 79.9421 43.1269 80.8141 41.5139C81.3581 40.5109 81.7071 39.0509 81.8601 37.1339H76.2051V27.3929H86.2721V35.8259C86.2721 37.3299 86.0761 38.8819 85.6841 40.4839C85.2921 42.0859 84.5611 43.4749 83.4941 44.6519C82.3831 45.8939 81.0421 46.8419 79.4741 47.4959Z" fill="white"/>
<g id="Group_2">
<path id="Vector_4" d="M27.2911 79.122V73.764C26.9611 74.293 26.5321 74.707 26.0031 75.006C25.4741 75.305 24.8701 75.454 24.1901 75.454C22.7131 75.454 21.5331 74.904 20.6511 73.805C19.7681 72.706 19.3271 71.198 19.3271 69.282C19.3271 67.62 19.7751 66.258 20.6721 65.197C21.5681 64.136 22.6721 63.605 23.9851 63.605C24.7821 63.605 25.4481 63.756 25.9841 64.058C26.5201 64.36 26.9971 64.844 27.4161 65.511V63.955H30.2701V79.122H27.2921H27.2911ZM22.9581 71.914C23.3601 72.563 23.9901 72.888 24.8491 72.888C25.4121 72.888 25.9071 72.709 26.3331 72.352C27.0271 71.761 27.3741 70.779 27.3741 69.405C27.3741 68.423 27.1581 67.623 26.7251 67.004C26.2921 66.386 25.6601 66.077 24.8291 66.077C23.9981 66.077 23.3801 66.389 22.9741 67.015C22.5621 67.633 22.3561 68.461 22.3561 69.498C22.3561 70.46 22.5571 71.265 22.9591 71.914H22.9581Z" fill="white"/>
<path id="Vector_5" d="M40.1395 63.9549H42.9935V75.1859H40.0155V69.0759C40.0155 68.3549 39.9195 67.7739 39.7275 67.3349C39.3565 66.5239 38.6695 66.1189 37.6665 66.1189C36.8835 66.1189 36.3575 66.4039 36.0905 66.9739C35.9395 67.2969 35.8635 67.7779 35.8635 68.4159V75.1849H32.8545V68.4159C32.8545 67.1309 33.0155 66.1599 33.3385 65.4999C33.9155 64.3049 35.0345 63.7069 36.6975 63.7069C37.2745 63.7069 37.7775 63.7829 38.2065 63.9339C38.6355 64.0849 39.0805 64.3669 39.5405 64.7789C39.6915 64.9089 39.8225 65.0609 39.9325 65.2319C40.0425 65.4039 40.1115 65.5069 40.1385 65.5409V63.9539L40.1395 63.9549Z" fill="white"/>
<path id="Vector_6" d="M53.9515 74.506C53.0555 75.138 51.9025 75.454 50.4945 75.454C48.8395 75.454 47.5405 74.918 46.5995 73.847C45.6585 72.775 45.1875 71.275 45.1875 69.344C45.1875 67.634 45.6135 66.243 46.4655 65.171C47.3175 64.099 48.6465 63.564 50.4525 63.564C52.2585 63.564 53.6225 64.206 54.5425 65.491C55.1195 66.288 55.4425 67.133 55.5115 68.026H52.5135C52.4515 67.435 52.2765 66.954 51.9885 66.584C51.6995 66.213 51.2125 66.028 50.5255 66.028C49.5565 66.028 48.8975 66.495 48.5475 67.429C48.3555 67.93 48.2595 68.593 48.2595 69.418C48.2595 70.284 48.3555 70.977 48.5475 71.499C48.9115 72.481 49.5885 72.972 50.5775 72.972C51.2715 72.972 51.7825 72.745 52.1125 72.292C52.3395 71.955 52.4795 71.578 52.5345 71.159H55.5435C55.3785 72.759 54.8485 73.876 53.9515 74.508V74.506Z" fill="white"/>
<path id="Vector_7" d="M57.1599 71.549H59.9929C60.0619 71.982 60.1989 72.325 60.4049 72.579C60.6929 72.922 61.1849 73.094 61.8779 73.094C62.4959 73.094 62.9649 73.006 63.2839 72.831C63.6029 72.656 63.7629 72.338 63.7629 71.878C63.7629 71.5 63.5529 71.222 63.1339 71.043C62.8999 70.94 62.5119 70.854 61.9699 70.785L60.9709 70.661C59.8379 70.517 58.9789 70.276 58.3949 69.94C57.3299 69.322 56.7979 68.322 56.7979 66.942C56.7979 65.877 57.1289 65.055 57.7919 64.474C58.4549 63.894 59.2949 63.603 60.3109 63.603C61.1079 63.603 61.8219 63.785 62.4539 64.149C62.9829 64.458 63.4499 64.832 63.8549 65.272C63.8759 65.018 63.9029 64.791 63.9369 64.592C63.9709 64.393 64.0329 64.18 64.1219 63.953H67.3159V64.386C67.1238 64.475 66.9789 64.589 66.8829 64.726C66.7869 64.863 66.7279 65.124 66.7079 65.509C66.6939 66.017 66.6869 66.45 66.6869 66.807V71.959C66.6869 73.312 66.2089 74.233 65.2549 74.72C64.2999 75.208 63.2079 75.452 61.9789 75.452C60.0899 75.452 58.7569 74.957 57.9809 73.968C57.4929 73.336 57.2189 72.529 57.1569 71.547L57.1599 71.549ZM59.7459 67.159C59.7459 67.722 59.9729 68.138 60.4259 68.406C60.6939 68.564 61.1369 68.698 61.7549 68.808L62.4139 68.932C62.7439 68.994 63.0029 69.061 63.1919 69.133C63.3809 69.205 63.5679 69.299 63.7539 69.416V68.324C63.7329 67.342 63.4569 66.665 62.9249 66.294C62.3929 65.923 61.8099 65.738 61.1789 65.738C60.7809 65.738 60.4439 65.851 60.1689 66.078C59.8869 66.298 59.7469 66.658 59.7469 67.16L59.7459 67.159Z" fill="white"/>
<path id="Vector_8" d="M74.1456 66.0309C74.0456 66.0269 73.9516 66.0259 73.8626 66.0259C73.2646 66.0259 72.9076 66.0829 72.7906 66.1959C72.6736 66.3089 72.6156 66.5959 72.6156 67.0559V72.9909H74.4396V75.0829H72.6156V78.2149H69.7096V75.0829H68.1436V72.9909H69.7096V66.0769C69.7096 65.3759 69.8746 64.8579 70.2046 64.5209C70.7126 63.9919 71.6606 63.7519 73.0486 63.7999L74.4396 63.8519V66.0469C74.3436 66.0399 74.2456 66.0349 74.1456 66.0319V66.0309Z" fill="white"/>
<path id="Vector_9" d="M15.8521 67.3C15.6761 67.098 15.3411 66.769 14.8231 66.547C14.1841 66.273 13.6221 66.314 13.3091 66.34C12.9491 66.37 12.4171 66.413 11.9461 66.734C11.3251 67.156 10.9961 67.892 10.9571 68.942H18.1171C18.1301 69.844 18.1011 70.535 18.0311 71.015C17.9091 71.834 17.6441 72.554 17.2341 73.175C16.7801 73.879 16.2041 74.394 15.5061 74.72C14.8081 75.046 14.0251 75.21 13.1541 75.21C11.6891 75.21 10.4971 74.727 9.57915 73.761C8.66115 72.795 8.20215 71.406 8.20215 69.595C8.20215 67.662 8.71115 66.268 9.72815 65.41C10.7451 64.552 11.9201 64.124 13.2501 64.124C13.7971 64.124 15.0771 64.134 16.2601 64.973C16.6031 65.216 16.8511 65.467 17.0121 65.65C16.6251 66.2 16.2381 66.751 15.8511 67.301L15.8521 67.3ZM10.7981 70.72C10.8881 71.398 11.1071 71.936 11.4551 72.332C11.8041 72.729 12.2951 72.927 12.9281 72.927C13.5101 72.927 13.9981 72.74 14.3921 72.366C14.7861 71.992 15.0051 71.443 15.0491 70.72H10.7971H10.7981Z" fill="white"/>
<path id="Vector_10" d="M84.4215 67.129C84.2455 66.927 83.9105 66.598 83.3925 66.376C82.7535 66.102 82.1915 66.143 81.8785 66.169C81.5185 66.199 80.9865 66.242 80.5155 66.563C79.8945 66.985 79.5655 67.721 79.5265 68.771H86.6865C86.6995 69.673 86.6705 70.364 86.6005 70.844C86.4785 71.663 86.2135 72.383 85.8035 73.004C85.3495 73.708 84.7735 74.223 84.0755 74.549C83.3775 74.875 82.5945 75.039 81.7235 75.039C80.2585 75.039 79.0665 74.556 78.1485 73.59C77.2305 72.624 76.7715 71.235 76.7715 69.424C76.7715 67.491 77.2805 66.097 78.2975 65.239C79.3145 64.381 80.4895 63.953 81.8195 63.953C82.3665 63.953 83.6465 63.963 84.8295 64.802C85.1725 65.045 85.4205 65.296 85.5815 65.479C85.1945 66.029 84.8075 66.58 84.4205 67.13L84.4215 67.129ZM79.3685 70.549C79.4585 71.227 79.6775 71.765 80.0255 72.161C80.3745 72.558 80.8655 72.756 81.4985 72.756C82.0805 72.756 82.5685 72.569 82.9625 72.195C83.3565 71.821 83.5755 71.272 83.6195 70.549H79.3675H79.3685Z" fill="white"/>
</g>
</g>
</svg>
