<svg width="25" height="28" viewBox="0 0 25 28" fill="none" xmlns="http://www.w3.org/2000/svg">
<g id="Group 44">
<path id="Vector" d="M24.9014 7.39432C24.9014 7.27001 24.9014 7.27001 24.7699 7.27001C24.4413 7.27001 24.1126 7.23894 23.8168 7.17678C22.6336 7.0214 18.8869 5.15677 18.2295 2.1112C18.2295 2.04905 18.0652 1.30319 18.0652 0.961345C18.0652 0.805959 18.0652 0.805959 17.9009 0.805959C17.868 0.805959 17.8351 0.805959 17.8023 0.805959C16.3233 0.805959 14.8443 0.805959 13.3982 0.805959C13.1024 0.805959 13.1353 0.774882 13.1353 1.05458C13.1353 7.08355 13.1353 13.1436 13.1353 19.1726C13.1353 19.3901 13.1353 19.6077 13.1024 19.8563C12.8723 21.0372 12.2479 21.9384 11.1633 22.56C10.243 23.0883 9.22416 23.2437 8.17244 23.0572C7.84378 22.9951 7.51511 22.8708 7.18645 22.7465C7.15358 22.7154 7.12072 22.7154 7.12072 22.6843C7.02212 22.5911 6.89065 22.5289 6.79205 22.4668C5.41167 21.5655 4.78721 20.3224 4.9844 18.7686C5.1816 17.1836 6.13473 16.127 7.71231 15.5676C8.17244 15.4122 8.66543 15.3501 9.19129 15.3501C9.51996 15.3812 9.84862 15.4122 10.1444 15.4744C10.243 15.5055 10.3088 15.4744 10.3088 15.3501C10.3088 15.319 10.3088 15.2879 10.3088 15.2258C10.3088 14.1381 10.2759 11.7762 10.2759 11.7762C10.2759 11.4654 10.2759 11.1547 10.2759 10.8439C10.2759 10.7507 10.243 10.7507 10.1444 10.7196C9.55282 10.6574 8.96123 10.6264 8.36964 10.6885C7.54798 10.7507 6.75919 10.906 5.97039 11.1857C4.72147 11.6208 3.63688 12.2734 2.68376 13.1436C1.8621 13.8895 1.23764 14.7596 0.777514 15.723C0.317385 16.6553 0.087321 17.6498 0.0215883 18.6443C-0.011278 19.0793 -0.0112779 19.5455 0.0544548 19.9806C0.120187 20.6021 0.251652 21.1926 0.44885 21.7831C1.00758 23.4612 2.0593 24.8597 3.50542 25.9474C3.66975 26.0717 3.80122 26.196 3.96555 26.2582C4.03128 26.3203 4.12988 26.3825 4.19561 26.4446C4.42568 26.6 4.68861 26.7554 4.95154 26.8797C6.59485 27.6567 8.3039 27.9674 10.1444 27.7499C12.5108 27.4702 14.4828 26.4757 16.0275 24.7975C17.4736 23.1815 18.1967 21.3169 18.1967 19.2037C18.2295 16.1892 18.1967 13.1747 18.1967 10.1913C18.1967 10.1291 18.1638 10.0048 18.2295 9.97373C18.2953 9.94265 18.361 10.0359 18.4267 10.067C19.6099 10.8128 20.8917 11.3411 22.2721 11.6208C23.0609 11.8073 23.8825 11.9005 24.7042 11.9005C24.9671 11.9005 25 11.9005 25 11.6519C24.9671 10.5953 24.9014 7.67402 24.9014 7.39432Z" fill="white"/>
</g>
</svg>
